<?xml version="1.0" encoding="UTF-8" standalone="no"?>
<!DOCTYPE svg PUBLIC "-//W3C//DTD SVG 1.1//EN" "http://www.w3.org/Graphics/SVG/1.1/DTD/svg11.dtd">
<svg width="100%" height="100%" viewBox="0 0 1000 1000" version="1.1" xmlns="http://www.w3.org/2000/svg" xmlns:xlink="http://www.w3.org/1999/xlink" xml:space="preserve" xmlns:serif="http://www.serif.com/" style="fill-rule:evenodd;clip-rule:evenodd;stroke-linejoin:round;stroke-miterlimit:2;">
    <g id="layer1">
        <path id="path1" d="M825.466,931.392C821.836,929.178 817.342,924.259 755.5,854.794C729.1,825.14 683.033,773.399 653.128,739.814C623.223,706.229 597.727,677.4 596.47,675.75C592.344,670.335 592.835,664.904 598.047,658.31L602.094,653.19L585.443,635.853L568.792,618.516L560.214,623.902C500.361,661.478 424.057,675.983 351,663.67C269.027,649.856 194.297,601.056 147.449,530.75C122.091,492.694 106.669,451.073 100.329,403.584C97.949,385.762 97.959,345.589 100.347,328.25C103.814,303.073 109.691,278.888 117.52,257.577C126.717,232.54 146.522,197.91 164.602,175.25C173.341,164.297 200.055,137.584 211,128.854C253.821,94.696 307.329,72.594 364.086,65.617C382.582,63.344 416.956,63.348 435.904,65.627C494.476,72.669 549.344,95.302 594,130.841C605.952,140.352 630.982,165.818 640.614,178.265C673.622,220.918 693.698,267.645 701.404,319.75C710.485,381.146 700.793,443.554 673.763,497.75C662.149,521.036 645.587,545.886 631.685,560.884C628.558,564.257 626,567.458 626,567.996C626,568.534 633.167,575.971 641.926,584.523C657.66,599.886 657.873,600.048 659.673,598.059C662.886,594.509 666.986,592.99 671.916,593.523L676.5,594.019L795.846,713.885C864.935,783.275 916.294,835.625 917.81,838.204C919.705,841.427 920.427,844.051 920.422,847.704C920.409,856.972 917.386,860.858 883.779,894.806C848.803,930.137 844.81,933.253 834.523,933.246C830.428,933.243 827.529,932.65 825.466,931.392L825.466,931.392ZM435.5,598.803C463.189,594.529 485.867,587.191 509.585,574.832C578.06,539.15 623.894,474.586 635.652,397.25C638.018,381.688 638.004,349.38 635.624,332.75C631.898,306.719 624.964,284.113 613.542,260.75C578.819,189.73 513.621,143.045 432.5,131.117C419.126,129.15 383.337,129.422 369,131.6C288.63,143.805 222.101,191.63 187.95,261.75C170.034,298.537 162.611,335.817 165.06,376.708C167.071,410.292 174.147,437.854 188.43,467.75C208.837,510.463 239.349,543.644 280.746,568.14C311.833,586.536 340.522,595.75 382,600.659C389.447,601.54 425.98,600.273 435.5,598.803ZM390.286,559.857C376.432,555.338 366.682,544.041 364.034,529.437C361.034,512.896 370.758,494.941 386.782,487.43C391.811,485.073 393.705,484.754 402.5,484.781C411.317,484.808 413.165,485.135 418.124,487.544C429.575,493.107 436.315,501.511 439.596,514.319C443.876,531.026 434.857,549.272 418.286,557.43C412.723,560.168 410.473,560.689 403.127,560.938C397.742,561.121 392.916,560.714 390.286,559.857ZM374.302,458.238C369.677,456.376 368.652,452.052 369.329,437.269C371.352,393.146 382.139,373.803 425.43,336.67C445.846,319.159 454.548,306.753 457.18,291.407C460.531,271.866 449.77,251.182 431.479,242.004C409.273,230.862 381.486,233.9 364.622,249.312C354.889,258.208 350.608,266.815 346.971,284.802C343.604,301.455 342.742,301.982 323.263,299.286C315.693,298.238 304.1,296.877 297.5,296.26C282.244,294.836 278.197,293.776 276.866,290.855C275.541,287.948 277.976,270.703 281.611,257.25C289.807,226.92 310.602,202.427 341.736,186.435C363.435,175.289 384.702,170.659 410,171.575C445.996,172.878 475.802,184.715 499.086,206.952C513.168,220.401 521.589,234.694 526.658,253.75C529.044,262.718 529.327,265.607 529.409,281.75C529.513,302.313 528.026,309.99 521.056,324.869C513.076,341.903 503.256,353.558 476.547,377.694C440.478,410.289 436.298,416.872 434.442,444.021C433.775,453.778 433.592,454.415 430.793,456.771L427.847,459.25L402.173,459.187C388.053,459.152 375.511,458.725 374.302,458.238L374.302,458.238Z" style="fill:white;fill-rule:nonzero;"/>
    </g>
</svg>
